<?xml version="1.0" encoding="UTF-8"?>
<svg xmlns="http://www.w3.org/2000/svg" xmlns:xlink="http://www.w3.org/1999/xlink" width="125px" height="125px" viewBox="0 0 125 125" version="1.1">
<g id="surface1">
<path style=" stroke:none;fill-rule:nonzero;fill:rgb(100%,100%,100%);fill-opacity:1;" d="M 12.5 60.417969 L 58.332031 60.417969 C 59.582031 60.417969 60.417969 59.582031 60.417969 58.332031 L 60.417969 12.5 C 60.417969 11.25 59.582031 10.417969 58.332031 10.417969 L 12.5 10.417969 C 11.25 10.417969 10.417969 11.25 10.417969 12.5 L 10.417969 58.332031 C 10.417969 59.582031 11.25 60.417969 12.5 60.417969 Z M 22.917969 56.25 L 22.917969 54.792969 C 22.917969 47.917969 27.917969 42.292969 34.167969 41.667969 C 35 41.667969 35.832031 41.667969 36.667969 41.667969 C 42.917969 42.292969 47.917969 48.125 47.917969 54.792969 L 47.917969 56.25 Z M 35.417969 37.5 C 31.875 37.5 29.167969 34.792969 29.167969 31.25 C 29.167969 27.707031 31.875 25 35.417969 25 C 38.957031 25 41.667969 27.707031 41.667969 31.25 C 41.667969 34.792969 38.957031 37.5 35.417969 37.5 Z M 14.582031 14.582031 L 56.25 14.582031 L 56.25 56.25 L 51.875 56.25 L 51.875 54.792969 C 51.875 47.886719 48.035156 41.851562 42.363281 39.0625 C 44.503906 37.167969 45.832031 34.390625 45.832031 31.25 C 45.832031 25.417969 41.25 20.832031 35.417969 20.832031 C 29.582031 20.832031 25 25.417969 25 31.25 C 25 34.371094 26.3125 37.128906 28.421875 39.023438 C 22.75 41.792969 18.75 47.855469 18.75 54.792969 L 18.75 56.25 L 14.582031 56.25 Z M 91.667969 10.417969 L 68.75 10.417969 C 67.5 10.417969 66.667969 11.25 66.667969 12.5 L 66.667969 20.832031 C 66.667969 22.082031 67.5 22.917969 68.75 22.917969 L 91.667969 22.917969 C 92.917969 22.917969 93.75 22.082031 93.75 20.832031 L 93.75 12.5 C 93.75 11.25 92.917969 10.417969 91.667969 10.417969 Z M 89.582031 18.75 L 70.832031 18.75 L 70.832031 14.582031 L 89.582031 14.582031 Z M 91.667969 29.167969 L 68.75 29.167969 C 67.5 29.167969 66.667969 30 66.667969 31.25 L 66.667969 39.582031 C 66.667969 40.832031 67.5 41.667969 68.75 41.667969 L 91.667969 41.667969 C 92.917969 41.667969 93.75 40.832031 93.75 39.582031 L 93.75 31.25 C 93.75 30 92.917969 29.167969 91.667969 29.167969 Z M 89.582031 37.5 L 70.832031 37.5 L 70.832031 33.332031 L 89.582031 33.332031 Z M 91.667969 47.917969 L 68.75 47.917969 C 67.5 47.917969 66.667969 48.75 66.667969 50 L 66.667969 58.332031 C 66.667969 59.582031 67.5 60.417969 68.75 60.417969 L 91.667969 60.417969 C 92.917969 60.417969 93.75 59.582031 93.75 58.332031 L 93.75 50 C 93.75 48.75 92.917969 47.917969 91.667969 47.917969 Z M 89.582031 56.25 L 70.832031 56.25 L 70.832031 52.082031 L 89.582031 52.082031 Z M 91.667969 66.667969 L 12.5 66.667969 C 11.25 66.667969 10.417969 67.5 10.417969 68.75 C 10.417969 70 11.25 70.832031 12.5 70.832031 L 91.667969 70.832031 C 92.917969 70.832031 93.75 70 93.75 68.75 C 93.75 67.5 92.917969 66.667969 91.667969 66.667969 Z M 45.832031 77.082031 L 12.5 77.082031 C 11.25 77.082031 10.417969 77.917969 10.417969 79.167969 C 10.417969 80.417969 11.25 81.25 12.5 81.25 L 45.832031 81.25 C 47.082031 81.25 47.917969 80.417969 47.917969 79.167969 C 47.917969 77.917969 47.082031 77.082031 45.832031 77.082031 Z M 91.667969 77.082031 L 58.332031 77.082031 C 57.082031 77.082031 56.25 77.917969 56.25 79.167969 C 56.25 80.417969 57.082031 81.25 58.332031 81.25 L 91.667969 81.25 C 92.917969 81.25 93.75 80.417969 93.75 79.167969 C 93.75 77.917969 92.917969 77.082031 91.667969 77.082031 Z M 45.832031 87.5 L 12.5 87.5 C 11.25 87.5 10.417969 88.332031 10.417969 89.582031 C 10.417969 90.832031 11.25 91.667969 12.5 91.667969 L 45.832031 91.667969 C 47.082031 91.667969 47.917969 90.832031 47.917969 89.582031 C 47.917969 88.332031 47.082031 87.5 45.832031 87.5 Z M 91.667969 87.5 L 58.332031 87.5 C 57.082031 87.5 56.25 88.332031 56.25 89.582031 C 56.25 90.832031 57.082031 91.667969 58.332031 91.667969 L 91.667969 91.667969 C 92.917969 91.667969 93.75 90.832031 93.75 89.582031 C 93.75 88.332031 92.917969 87.5 91.667969 87.5 Z M 45.832031 97.917969 L 12.5 97.917969 C 11.25 97.917969 10.417969 98.75 10.417969 100 C 10.417969 101.25 11.25 102.082031 12.5 102.082031 L 45.832031 102.082031 C 47.082031 102.082031 47.917969 101.25 47.917969 100 C 47.917969 98.75 47.082031 97.917969 45.832031 97.917969 Z M 91.667969 97.917969 L 58.332031 97.917969 C 57.082031 97.917969 56.25 98.75 56.25 100 C 56.25 101.25 57.082031 102.082031 58.332031 102.082031 L 91.667969 102.082031 C 92.917969 102.082031 93.75 101.25 93.75 100 C 93.75 98.75 92.917969 97.917969 91.667969 97.917969 Z M 45.832031 108.332031 L 12.5 108.332031 C 11.25 108.332031 10.417969 109.167969 10.417969 110.417969 C 10.417969 111.667969 11.25 112.5 12.5 112.5 L 45.832031 112.5 C 47.082031 112.5 47.917969 111.667969 47.917969 110.417969 C 47.917969 109.167969 47.082031 108.332031 45.832031 108.332031 Z M 91.667969 108.332031 L 58.332031 108.332031 C 57.082031 108.332031 56.25 109.167969 56.25 110.417969 C 56.25 111.667969 57.082031 112.5 58.332031 112.5 L 91.667969 112.5 C 92.917969 112.5 93.75 111.667969 93.75 110.417969 C 93.75 109.167969 92.917969 108.332031 91.667969 108.332031 Z M 91.667969 108.332031 "/>
<path style=" stroke:none;fill-rule:nonzero;fill:rgb(100%,100%,100%);fill-opacity:1;" d="M 118.75 66.667969 L 104.167969 66.667969 L 104.167969 6.25 C 104.167969 2.707031 101.457031 0 97.917969 0 L 6.25 0 C 2.707031 0 0 2.707031 0 6.25 L 0 118.75 C 0 122.292969 2.707031 125 6.25 125 L 112.5 125 C 119.375 125 125 119.375 125 112.5 L 125 72.917969 C 125 69.375 122.292969 66.667969 118.75 66.667969 Z M 6.25 120.832031 C 5.207031 120.832031 4.167969 120 4.167969 118.75 L 4.167969 6.25 C 4.167969 5.207031 5.207031 4.167969 6.25 4.167969 L 97.917969 4.167969 C 98.957031 4.167969 100 5 100 6.25 L 100 112.5 C 100 115.625 101.042969 118.542969 103.125 120.832031 Z M 120.832031 112.5 C 120.832031 117.082031 117.082031 120.832031 112.5 120.832031 C 107.917969 120.832031 104.167969 117.082031 104.167969 112.5 L 104.167969 70.832031 L 118.75 70.832031 C 119.792969 70.832031 120.832031 71.667969 120.832031 72.917969 Z M 120.832031 112.5 "/>
</g>
</svg>
