<?xml version="1.0" encoding="UTF-8"?>
<svg xmlns="http://www.w3.org/2000/svg" xmlns:xlink="http://www.w3.org/1999/xlink" width="24px" height="24px" viewBox="0 0 24 24" version="1.1">
<g id="surface1">
<path style=" stroke:none;fill-rule:nonzero;fill:rgb(100%,100%,100%);fill-opacity:1;" d="M 2.398438 11.601562 L 11.199219 11.601562 C 11.441406 11.601562 11.601562 11.441406 11.601562 11.199219 L 11.601562 2.398438 C 11.601562 2.160156 11.441406 2 11.199219 2 L 2.398438 2 C 2.160156 2 2 2.160156 2 2.398438 L 2 11.199219 C 2 11.441406 2.160156 11.601562 2.398438 11.601562 Z M 4.398438 10.800781 L 4.398438 10.519531 C 4.398438 9.199219 5.359375 8.121094 6.558594 8 C 6.71875 8 6.878906 8 7.039062 8 C 8.242188 8.121094 9.199219 9.238281 9.199219 10.519531 L 9.199219 10.800781 Z M 6.800781 7.199219 C 6.121094 7.199219 5.601562 6.679688 5.601562 6 C 5.601562 5.320312 6.121094 4.800781 6.800781 4.800781 C 7.480469 4.800781 8 5.320312 8 6 C 8 6.679688 7.480469 7.199219 6.800781 7.199219 Z M 2.800781 2.800781 L 10.800781 2.800781 L 10.800781 10.800781 L 9.960938 10.800781 L 9.960938 10.519531 C 9.960938 9.195312 9.222656 8.035156 8.132812 7.5 C 8.542969 7.136719 8.800781 6.601562 8.800781 6 C 8.800781 4.878906 7.921875 4 6.800781 4 C 5.679688 4 4.800781 4.878906 4.800781 6 C 4.800781 6.597656 5.050781 7.128906 5.457031 7.492188 C 4.367188 8.023438 3.601562 9.1875 3.601562 10.519531 L 3.601562 10.800781 L 2.800781 10.800781 Z M 17.601562 2 L 13.199219 2 C 12.960938 2 12.800781 2.160156 12.800781 2.398438 L 12.800781 4 C 12.800781 4.238281 12.960938 4.398438 13.199219 4.398438 L 17.601562 4.398438 C 17.839844 4.398438 18 4.238281 18 4 L 18 2.398438 C 18 2.160156 17.839844 2 17.601562 2 Z M 17.199219 3.601562 L 13.601562 3.601562 L 13.601562 2.800781 L 17.199219 2.800781 Z M 17.601562 5.601562 L 13.199219 5.601562 C 12.960938 5.601562 12.800781 5.761719 12.800781 6 L 12.800781 7.601562 C 12.800781 7.839844 12.960938 8 13.199219 8 L 17.601562 8 C 17.839844 8 18 7.839844 18 7.601562 L 18 6 C 18 5.761719 17.839844 5.601562 17.601562 5.601562 Z M 17.199219 7.199219 L 13.601562 7.199219 L 13.601562 6.398438 L 17.199219 6.398438 Z M 17.601562 9.199219 L 13.199219 9.199219 C 12.960938 9.199219 12.800781 9.359375 12.800781 9.601562 L 12.800781 11.199219 C 12.800781 11.441406 12.960938 11.601562 13.199219 11.601562 L 17.601562 11.601562 C 17.839844 11.601562 18 11.441406 18 11.199219 L 18 9.601562 C 18 9.359375 17.839844 9.199219 17.601562 9.199219 Z M 17.199219 10.800781 L 13.601562 10.800781 L 13.601562 10 L 17.199219 10 Z M 17.601562 12.800781 L 2.398438 12.800781 C 2.160156 12.800781 2 12.960938 2 13.199219 C 2 13.441406 2.160156 13.601562 2.398438 13.601562 L 17.601562 13.601562 C 17.839844 13.601562 18 13.441406 18 13.199219 C 18 12.960938 17.839844 12.800781 17.601562 12.800781 Z M 8.800781 14.800781 L 2.398438 14.800781 C 2.160156 14.800781 2 14.960938 2 15.199219 C 2 15.441406 2.160156 15.601562 2.398438 15.601562 L 8.800781 15.601562 C 9.039062 15.601562 9.199219 15.441406 9.199219 15.199219 C 9.199219 14.960938 9.039062 14.800781 8.800781 14.800781 Z M 17.601562 14.800781 L 11.199219 14.800781 C 10.960938 14.800781 10.800781 14.960938 10.800781 15.199219 C 10.800781 15.441406 10.960938 15.601562 11.199219 15.601562 L 17.601562 15.601562 C 17.839844 15.601562 18 15.441406 18 15.199219 C 18 14.960938 17.839844 14.800781 17.601562 14.800781 Z M 8.800781 16.800781 L 2.398438 16.800781 C 2.160156 16.800781 2 16.960938 2 17.199219 C 2 17.441406 2.160156 17.601562 2.398438 17.601562 L 8.800781 17.601562 C 9.039062 17.601562 9.199219 17.441406 9.199219 17.199219 C 9.199219 16.960938 9.039062 16.800781 8.800781 16.800781 Z M 17.601562 16.800781 L 11.199219 16.800781 C 10.960938 16.800781 10.800781 16.960938 10.800781 17.199219 C 10.800781 17.441406 10.960938 17.601562 11.199219 17.601562 L 17.601562 17.601562 C 17.839844 17.601562 18 17.441406 18 17.199219 C 18 16.960938 17.839844 16.800781 17.601562 16.800781 Z M 8.800781 18.800781 L 2.398438 18.800781 C 2.160156 18.800781 2 18.960938 2 19.199219 C 2 19.441406 2.160156 19.601562 2.398438 19.601562 L 8.800781 19.601562 C 9.039062 19.601562 9.199219 19.441406 9.199219 19.199219 C 9.199219 18.960938 9.039062 18.800781 8.800781 18.800781 Z M 17.601562 18.800781 L 11.199219 18.800781 C 10.960938 18.800781 10.800781 18.960938 10.800781 19.199219 C 10.800781 19.441406 10.960938 19.601562 11.199219 19.601562 L 17.601562 19.601562 C 17.839844 19.601562 18 19.441406 18 19.199219 C 18 18.960938 17.839844 18.800781 17.601562 18.800781 Z M 8.800781 20.800781 L 2.398438 20.800781 C 2.160156 20.800781 2 20.960938 2 21.199219 C 2 21.441406 2.160156 21.601562 2.398438 21.601562 L 8.800781 21.601562 C 9.039062 21.601562 9.199219 21.441406 9.199219 21.199219 C 9.199219 20.960938 9.039062 20.800781 8.800781 20.800781 Z M 17.601562 20.800781 L 11.199219 20.800781 C 10.960938 20.800781 10.800781 20.960938 10.800781 21.199219 C 10.800781 21.441406 10.960938 21.601562 11.199219 21.601562 L 17.601562 21.601562 C 17.839844 21.601562 18 21.441406 18 21.199219 C 18 20.960938 17.839844 20.800781 17.601562 20.800781 Z M 17.601562 20.800781 "/>
<path style=" stroke:none;fill-rule:nonzero;fill:rgb(100%,100%,100%);fill-opacity:1;" d="M 22.800781 12.800781 L 20 12.800781 L 20 1.199219 C 20 0.519531 19.480469 0 18.800781 0 L 1.199219 0 C 0.519531 0 0 0.519531 0 1.199219 L 0 22.800781 C 0 23.480469 0.519531 24 1.199219 24 L 21.601562 24 C 22.921875 24 24 22.921875 24 21.601562 L 24 14 C 24 13.320312 23.480469 12.800781 22.800781 12.800781 Z M 1.199219 23.199219 C 1 23.199219 0.800781 23.039062 0.800781 22.800781 L 0.800781 1.199219 C 0.800781 1 1 0.800781 1.199219 0.800781 L 18.800781 0.800781 C 19 0.800781 19.199219 0.960938 19.199219 1.199219 L 19.199219 21.601562 C 19.199219 22.199219 19.398438 22.761719 19.800781 23.199219 Z M 23.199219 21.601562 C 23.199219 22.480469 22.480469 23.199219 21.601562 23.199219 C 20.71875 23.199219 20 22.480469 20 21.601562 L 20 13.601562 L 22.800781 13.601562 C 23 13.601562 23.199219 13.761719 23.199219 14 Z M 23.199219 21.601562 "/>
</g>
</svg>
