<svg xmlns="http://www.w3.org/2000/svg" width="24" height="24" role="img"><rect id="backgroundrect" width="100%" height="100%" x="0" y="0" fill="none" stroke="none"/><title>Nintendo Switch icon</title><g class="currentLayer" style=""><title>Layer 1</title><path d="M14.176,24 h3.6740000000000004 c3.376,0 6.15,-2.774 6.15,-6.15 V6.15 C24,2.775 21.226,0 17.85,0 H14.1 c-0.07400000000000001,0 -0.15000000000000002,0.07400000000000001 -0.15000000000000002,0.15000000000000002 v23.7 c-0.0010000000000000002,0.07600000000000001 0.07500000000000001,0.15000000000000002 0.22600000000000003,0.15000000000000002 zm4.574,-13.199 c1.351,0 2.399,1.125 2.399,2.398 c0,1.352 -1.125,2.4 -2.399,2.4 c-1.35,0 -2.4,-1.049 -2.4,-2.4 c-0.07500000000000001,-1.3490000000000002 1.05,-2.398 2.4,-2.398 zM11.4,0 H6.15 C2.775,0 0,2.775 0,6.15 v11.7 C0,21.226 2.775,24 6.15,24 h5.25 c0.07400000000000001,0 0.15000000000000002,-0.07400000000000001 0.15000000000000002,-0.14900000000000002 V0.15000000000000002 c0.0010000000000000002,-0.07600000000000001 -0.07500000000000001,-0.15000000000000002 -0.15000000000000002,-0.15000000000000002 zM9.676,22.051 H6.15 c-2.326,0 -4.201,-1.875 -4.201,-4.201 V6.15 c0,-2.326 1.875,-4.201 4.201,-4.201 H9.6 l0.07600000000000001,20.102 zM3.75,7.199 c0,1.275 0.975,2.25 2.25,2.25 s2.25,-0.975 2.25,-2.25 c0,-1.2730000000000001 -0.975,-2.25 -2.25,-2.25 s-2.25,0.977 -2.25,2.25 z" id="svg_1" class="selected" fill="#ffffff" fill-opacity="1"/></g></svg>
