<svg xmlns="http://www.w3.org/2000/svg" width="245" height="242.125" viewBox="0 0 245 242.125">
  <defs>
    <style>
      .cls-1 {
        fill: #fff;
        fill-rule: evenodd;
      }
    </style>
  </defs>
  <path id="Relleno_de_color_1" data-name="Relleno de color 1" class="cls-1" d="M146,179c-0.29,10.156.586,18.634,3,25,12.207-.273,31.236-2.089,40,2l24,34q-0.5,2.5-1,5l-2,1L40,245l-3-2v-3l26-36c9.456,0.335,32.636,2.934,38-2,3.967-4.277,3.359-14.485,3-23-32.267.534-88.158,7.855-98-15C2.4,155.646,1.227,32.547,5,22,7.434,15.2,15.171,7.4,22,5L188,4c23.426,0,44.854-2.157,54,12,4.728,7.318,7.729,123.555,4,141-1.34,6.267-5.517,13.691-10,17C220.342,185.559,170.952,179.4,146,179ZM26,13c-4.876,3.142-8.433,4.465-11,10-2.232,4.073-4.976,125.4-2,135l8,10c15.037,9.268,87.71,3,112,3,22.252,0,90.77,4.722,100-6,9.115-10.589,4-47.943,4-66,0-23.114,6.795-74.743-8-84-10.764-6.735-41.859-2-57-2H26Zm32,8c35.366-.528,130.282-7.559,150,7,18.043,13.322,15,43.5,15,75,0,20.435-.235,35.889-9,47-12.887,16.336-44.788,13-74,13-36,0-89.235,7.021-105-14C22.879,132.838,20.159,55.723,33,37,38.881,28.424,48.263,26,58,21Zm4,8c-9.769,4.493-17.91,6.124-23,15-6.84,11.928-4.665,89.938,2,99,13.694,18.62,69.834,11,101,11,24.195,0,55.534,4.039,66-10,7.241-9.713,6-26.793,6-44,0-19.409,3.223-47.12-5-59C195.506,21.505,98.128,28.505,62,29Zm51,150c0.638,22.868-4.762,28.561-13,41v1h50q-0.5-1.5-1-3c-9.819-9.015-12.447-19.135-12-39H113ZM67,213L51,236v1H199v-1l-3-3-14-20H156l7,12q-0.5,1.5-1,3c-10.76,3.1-70.874,2.508-75-3l7-12H67Z" transform="translate(-2.656 -3.875)"/>
</svg>
