<svg xmlns="http://www.w3.org/2000/svg" width="250" height="250" viewBox="0 0 250 250">
  <defs>
    <style>
      .cls-1 {
        fill: #fff;
        fill-rule: evenodd;
      }
    </style>
  </defs>
  <path id="Relleno_de_color_1" data-name="Relleno de color 1" class="cls-1" d="M109,0c70.319-1.1,111.56,27.153,132,75,37.714,88.283-28.585,163.134-100,175C53.28,264.575-22.386,175.625,4,89,15.056,52.7,41.8,23.2,75,9Zm-3,62c-0.227,16.856-3.929,105.269,2,112l22,13V87l15,5q0.5,18,1,36c7.425,2.96,10.867,3.413,17-1C179.393,77.487,142.716,73.079,106,62ZM95,134c-16.847,7.251-45.017,6.333-47,28l1,1c5.174,11.316,31.821,14.889,47,9V160c-7.209,1.311-18.505,3.779-25,0l2-3C80.291,150.4,103.724,153.125,95,134Zm72,3-27,7v12c16.373-2.952,31.852-11.507,44-2v1c-14.756,2.387-44.645,9.916-44,29,18.607-6.658,50.572-12.6,62-27v-3C193.556,144.466,184.92,137.205,167,137Z"/>
</svg>
