<?xml version="1.0" encoding="UTF-8"?>
<svg xmlns="http://www.w3.org/2000/svg" xmlns:xlink="http://www.w3.org/1999/xlink" width="35px" height="24px" viewBox="0 0 35 24" version="1.1">
<g id="surface1">
<path style=" stroke:none;fill-rule:evenodd;fill:rgb(100%,100%,100%);fill-opacity:1;" d="M 9.03125 0 C 12.347656 0.0234375 13.21875 0.953125 15.054688 2.285156 C 15.894531 5.070312 15.601562 7.042969 14.675781 9.523438 L 10.914062 11.429688 C 8.308594 11.167969 7.253906 10.28125 5.644531 9.144531 L 4.890625 4.191406 C 6.03125 1.878906 6.992188 1.363281 9.03125 0 Z M 23.332031 0 C 29.175781 -0.167969 30.859375 3.785156 29.355469 8.761719 C 23.085938 14.167969 14.917969 7.40625 20.324219 2.285156 Z M 20.699219 24 L 0 24 L 0.375 20.191406 C 3.472656 12.640625 17.632812 12.621094 20.324219 20.570312 Z M 35 24 L 22.203125 24 C 22.300781 19.1875 20.753906 18.136719 18.816406 15.617188 L 19.570312 15.238281 C 27.492188 13.039062 31.398438 16.25 35 20.570312 Z M 35 24 "/>
</g>
</svg>
