<svg xmlns="http://www.w3.org/2000/svg" width="73.625" height="73.938" viewBox="0 0 73.625 73.938">
  <defs>
    <style>
      .cls-1 {
        fill: #fff;
        fill-rule: evenodd;
      }
    </style>
  </defs>
  <path id="Relleno_de_color_1" data-name="Relleno de color 1" class="cls-1" d="M46,12c10.056-.233,19.113,1.939,24,7-9.015.471-13.8,3.778-20,7L32,18l1-2ZM24,22c8.74,1.263,12.39,6.658,18,11l-6,6C30.737,50.63,21.564,55.961,21,73l-3-2C10.966,50.908,12.87,37.463,24,22Zm49,0c16.474,4.843,19.1,38.457,7,50C78.811,54.434,67.065,44.111,59,33ZM50,41c11.021,8.1,22.3,18.6,28,32l-3,6c-19.571,9.068-34,10.017-52-2V72C29.67,58.672,40.511,51.3,50,41Z" transform="translate(-13.875 -12)"/>
</svg>
